<svg xmlns="http://www.w3.org/2000/svg" viewBox="0 0 960.000000 663.000000">
  <path transform="translate(0.000000,663.000000) scale(0.100000,-0.100000)" d="M5020 6101 c-382 -219 -695 -402 -695 -405 0 -3 439 -768 975 -1701 l975 -1695 938 0 c515 0 937 3 937 8 0 14 -2416 4186 -2426 4189 -5 2 -322 -176 -704 -396z M3417 4627 c-383 -221 -696 -407 -695 -413 2 -6 248 -433 548 -950 l545 -939 5 -210 5 -210 203 -3 202 -2 0 200 0 200 731 0 c692 0 731 1 724 18 -10 27 -1559 2711 -1565 2712 -3 0 -319 -181 -703 -403z M1771 3186 c-381 -221 -694 -404 -695 -407 0 -2 60 -111 134 -242 l135 -237 938 0 939 0 -35 63 c-160 284 -707 1222 -713 1223 -5 1 -321 -179 -703 -400z M3230 1969 l0 -341 -32 20 c-66 41 -136 71 -213 94 -68 19 -103 23 -230 23 -126 0 -163 -4 -228 -23 -295 -85 -511 -304 -593 -602 -27 -99 -26 -310 4 -412 59 -209 175 -369 353 -487 153 -103 324 -149 512 -138 124 7 224 34 340 92 l87 44 0 -49 0 -50 200 0 200 0 0 1085 0 1085 -200 0 -200 0 0 -341z m-338 -589 c223 -69 367 -294 328 -512 -34 -195 -188 -346 -387 -380 -135 -23 -284 25 -389 124 -65 62 -99 115 -125 199 -51 163 -1 340 130 461 125 116 288 156 443 108z M5707 2303 c-4 -3 -7 -154 -7 -335 0 -182 -3 -328 -7 -326 -5 2 -47 23 -95 46 -224 111 -525 109 -753 -5 -198 -100 -354 -286 -425 -508 -30 -94 -39 -299 -17 -401 53 -249 215 -463 437 -578 119 -62 211 -87 350 -93 156 -7 275 17 411 84 l99 49 0 -48 0 -48 200 0 200 0 0 1085 0 1085 -193 0 c-107 0 -197 -3 -200 -7z m-368 -914 c75 -17 150 -59 215 -119 107 -100 151 -212 144 -361 -4 -76 -9 -97 -41 -161 -90 -183 -301 -295 -489 -260 -222 41 -388 234 -388 452 0 244 210 458 450 459 36 0 85 -4 109 -10z M730 1755 c-259 -51 -481 -226 -594 -466 -59 -123 -71 -185 -71 -354 0 -129 3 -160 23 -225 96 -304 343 -532 644 -594 190 -39 425 -3 581 90 32 19 60 34 63 34 2 0 4 -22 4 -50 l0 -50 195 0 195 0 0 810 0 810 -195 0 -195 0 0 -63 0 -64 -98 49 c-162 81 -373 109 -552 73z m295 -370 c222 -58 377 -284 345 -503 -5 -31 -15 -76 -23 -98 -67 -185 -286 -321 -481 -299 -165 18 -299 114 -374 264 -36 73 -37 77 -37 191 0 114 1 117 38 192 101 205 318 308 532 253z M6895 1754 c-155 -35 -311 -122 -423 -235 -104 -107 -164 -209 -208 -356 -23 -76 -27 -106 -27 -223 0 -117 4 -147 27 -223 95 -316 341 -543 654 -603 190 -36 410 0 570 94 l52 31 0 -49 0 -50 205 0 205 0 0 810 0 810 -202 -2 -203 -3 -3 -58 c-2 -32 -6 -57 -10 -55 -4 2 -39 20 -79 40 -114 60 -198 79 -353 84 -98 3 -154 -1 -205 -12z m300 -368 c135 -36 242 -125 303 -253 36 -76 37 -81 37 -193 0 -112 -1 -117 -37 -193 -67 -139 -187 -231 -339 -258 -173 -31 -367 58 -464 211 -127 202 -69 479 131 616 109 75 250 102 369 70z M8640 1759 c-256 -45 -446 -200 -490 -400 -7 -32 -11 -93 -8 -141 8 -160 97 -293 241 -362 92 -44 189 -69 408 -106 234 -40 293 -61 317 -116 36 -78 -8 -158 -113 -206 -42 -19 -66 -23 -145 -22 -183 2 -296 76 -318 207 l-8 42 -212 3 -212 2 0 -22 c0 -13 7 -51 15 -86 38 -160 144 -288 305 -365 141 -68 219 -82 435 -81 209 1 284 16 423 85 148 72 235 183 269 342 16 77 13 184 -6 249 -34 111 -160 230 -299 282 -90 34 -119 40 -322 76 -188 33 -256 51 -308 82 -99 60 -68 183 55 219 28 8 93 14 158 14 94 0 116 -4 151 -22 71 -38 95 -76 107 -173 2 -13 34 -15 205 -18 l202 -2 0 27 c-2 148 -129 333 -285 415 -115 60 -199 79 -365 83 -80 2 -170 0 -200 -6z M3827 1754 c-4 -4 -7 -369 -7 -811 l0 -803 205 0 205 0 -2 807 -3 808 -196 3 c-107 1 -198 -1 -202 -4z"/>
</svg>
