<svg xmlns="http://www.w3.org/2000/svg" viewBox="0 0 384.000000 131.000000">
  <path transform="translate(0.000000,131.000000) scale(0.100000,-0.100000)" d="M720 1293 c-93 -33 -190 -163 -190 -255 0 -26 3 -28 36 -28 107 0 234 147 234 270 0 35 -12 37 -80 13z M250 981 c-94 -29 -185 -115 -221 -209 -27 -72 -35 -197 -20 -288 28 -156 118 -332 221 -428 66 -61 102 -67 200 -33 95 34 170 35 237 5 29 -13 70 -21 104 -22 47 -1 62 4 93 28 56 42 122 131 168 225 40 81 41 85 22 95 -10 6 -44 36 -75 66 -63 63 -84 118 -82 210 2 73 24 122 85 187 l51 53 -27 29 c-50 52 -122 84 -203 89 -64 4 -86 0 -167 -27 l-93 -32 -88 31 c-87 30 -153 36 -205 21z M3180 605 l0 -385 50 0 50 0 0 385 0 385 -50 0 -50 0 0 -385z M1426 597 c-66 -193 -121 -358 -124 -364 -3 -9 10 -13 47 -13 l50 0 37 115 36 116 131 -3 130 -3 37 -110 37 -110 53 -3 c40 -2 51 0 48 10 -3 7 -58 172 -124 365 l-119 353 -60 0 -60 0 -119 -353z m253 21 l30 -88 -105 0 c-57 0 -104 3 -104 6 0 4 23 78 52 166 l52 158 22 -77 c13 -43 36 -117 53 -165z M2200 751 c-47 -14 -88 -40 -109 -68 l-20 -28 -1 48 0 47 -45 0 -45 0 0 -370 0 -370 50 0 50 0 0 137 0 136 23 -21 c88 -83 255 -62 326 41 43 64 54 109 49 206 -4 93 -27 149 -80 198 -46 43 -136 63 -198 44z m114 -96 c45 -30 70 -90 70 -170 1 -124 -57 -195 -160 -195 -93 0 -144 64 -144 182 0 108 27 163 95 194 38 18 103 12 139 -11z M2781 747 c-19 -6 -51 -27 -72 -47 l-38 -36 -3 41 c-3 39 -4 40 -45 43 l-43 3 0 -370 0 -371 50 0 50 0 0 137 0 136 23 -21 c115 -108 315 -41 362 123 21 71 16 185 -10 236 -60 116 -160 162 -274 126z m120 -90 c103 -68 107 -286 5 -348 -70 -43 -177 -14 -210 55 -25 53 -22 191 5 236 48 79 132 103 200 57z M3548 749 c-46 -13 -113 -71 -137 -118 -29 -55 -42 -141 -31 -205 24 -151 126 -226 289 -213 42 3 91 11 109 18 30 10 33 14 26 43 -3 17 -8 32 -9 34 -2 2 -20 -1 -42 -7 -67 -19 -160 -14 -204 11 -40 22 -79 84 -79 126 0 21 3 22 183 24 l182 3 -1 67 c-1 129 -75 216 -190 223 -32 2 -75 -1 -96 -6z m153 -95 c16 -16 32 -48 37 -71 l10 -43 -139 0 c-80 0 -139 4 -139 9 0 39 54 114 95 132 38 17 105 3 136 -27z"/>
</svg>
