<svg xmlns="http://www.w3.org/2000/svg" viewBox="0 0 3840.000000 1119.000000">
  <path transform="translate(0.000000,1119.000000) scale(0.100000,-0.100000)" d="M4947 7408 l-2 -3783 -27 -105 c-14 -58 -36 -134 -48 -170 -36 -107 -134 -299 -201 -395 -81 -115 -259 -292 -372 -372 -447 -314 -1013 -375 -1518 -161 -65 28 -81 39 -116 87 -281 386 -359 925 -202 1394 77 232 211 440 401 623 254 244 564 387 923 425 178 19 357 1 603 -58 l22 -5 0 936 c0 740 -3 938 -12 941 -28 9 -211 25 -370 31 l-168 7 0 202 0 203 -32 6 c-171 30 -618 31 -847 1 -749 -97 -1419 -420 -1950 -939 -581 -570 -926 -1285 -1012 -2101 -15 -141 -15 -519 0 -655 54 -484 185 -909 403 -1305 239 -433 555 -794 968 -1104 63 -47 158 -126 210 -176 322 -305 666 -526 1080 -693 593 -239 1286 -303 1919 -177 643 128 1238 441 1710 899 550 535 890 1211 1003 1999 22 152 22 155 25 2168 l4 2017 123 -82 c666 -445 1446 -697 2269 -732 l167 -7 0 919 0 920 -172 12 c-95 7 -216 20 -268 30 l-95 17 -3 192 -2 191 -98 6 c-430 28 -777 124 -1120 308 -127 69 -182 121 -305 286 -303 409 -480 896 -494 1359 l-6 173 -255 2 -256 3 -9 35 c-4 19 -11 119 -14 223 l-6 187 -923 0 -924 0 -3 -3782z M11907 7903 c-4 -3 -7 -280 -7 -615 l0 -608 720 0 720 0 0 -2330 0 -2330 715 0 715 0 2 2313 3 2312 584 5 584 5 193 605 c106 333 195 615 199 628 l5 22 -2213 0 c-1218 0 -2217 -3 -2220 -7z M17212 7900 c-279 -38 -514 -246 -588 -520 -23 -86 -23 -252 1 -340 36 -138 129 -283 234 -366 70 -56 196 -119 281 -141 86 -22 245 -22 330 1 203 52 376 191 464 370 51 106 69 185 69 306 0 122 -18 200 -70 307 -128 262 -429 422 -721 383z M18607 7903 c-4 -3 -7 -1329 -7 -2945 l0 -2938 705 0 705 0 0 763 0 762 212 193 c173 158 213 191 224 180 7 -7 310 -438 674 -958 364 -520 667 -951 674 -958 9 -9 170 -12 759 -10 l747 3 -979 1416 -980 1416 187 185 c103 102 448 438 767 748 319 309 632 614 695 676 l115 114 -851 0 -851 0 -696 -691 -697 -691 -2 1369 -3 1368 -696 3 c-382 1 -699 -1 -702 -5z M23635 7898 c-3 -7 -4 -283 -3 -613 l3 -600 718 -3 717 -2 0 -2330 0 -2330 720 0 720 0 0 2315 0 2315 582 2 581 3 198 620 c109 341 198 623 199 628 0 4 -997 7 -2215 7 -1763 0 -2217 -3 -2220 -12z M33700 4965 l0 -2945 700 0 700 0 0 759 0 759 211 193 c116 107 215 195 219 197 4 1 312 -434 686 -967 l679 -971 753 0 754 0 -45 63 c-130 183 -1908 2759 -1912 2770 -3 6 391 397 875 867 l879 855 -851 3 -850 2 -697 -692 -696 -692 -3 1372 -2 1372 -700 0 -700 0 0 -2945z M30090 6809 c-280 -6 -410 -19 -571 -54 -354 -79 -670 -225 -966 -446 -126 -95 -358 -327 -451 -451 -250 -334 -400 -684 -469 -1093 -28 -170 -26 -584 5 -756 45 -251 106 -437 217 -664 316 -646 914 -1122 1620 -1288 243 -57 276 -60 890 -64 387 -3 607 -1 685 7 349 35 715 157 1013 338 179 109 298 203 457 362 344 343 556 725 660 1191 68 302 68 716 0 1018 -99 442 -304 826 -615 1149 -372 388 -830 631 -1356 722 -177 30 -607 41 -1119 29z m496 -1250 c379 -53 714 -293 889 -639 293 -582 46 -1294 -548 -1575 -383 -181 -816 -148 -1181 92 -100 66 -259 231 -324 336 -220 354 -242 789 -59 1152 224 445 722 704 1223 634z M16600 4020 l0 -2000 705 0 705 0 0 2000 0 2000 -705 0 -705 0 0 -2000z"/>
</svg>
