<svg xmlns="http://www.w3.org/2000/svg" viewBox="0 0 512.000000 512.000000">
  <path transform="translate(0.000000,512.000000) scale(0.100000,-0.100000)" d="M4695 4291 c-26 -12 -159 -138 -385 -365 -190 -190 -348 -346 -352 -346 -5 0 -8 58 -8 128 0 81 -6 150 -15 187 -45 177 -172 325 -323 376 -56 19 -100 19 -1653 17 l-1595 -3 -76 -37 c-134 -67 -235 -200 -273 -359 -22 -96 -22 -1705 0 -1794 37 -144 129 -276 238 -340 100 -58 109 -59 432 -65 l300 -5 3 -27 c2 -14 -22 -159 -52 -321 -31 -163 -56 -309 -56 -325 0 -104 91 -201 188 -202 79 0 82 2 529 506 132 148 260 287 284 307 79 69 59 67 885 67 513 0 759 3 796 11 130 28 252 124 320 255 61 116 68 162 68 474 l0 275 570 570 c394 394 574 581 585 607 20 50 19 124 -4 173 -28 60 -206 230 -256 244 -58 16 -104 13 -150 -8z m182 -224 c46 -46 83 -91 83 -101 0 -19 -97 -126 -114 -126 -6 0 -54 43 -106 95 l-95 96 62 59 c33 33 67 60 74 60 7 0 50 -37 96 -83z m-1282 37 c89 -48 160 -150 184 -262 6 -29 11 -139 11 -245 l0 -192 -335 -335 -335 -335 -50 -210 c-52 -217 -57 -254 -40 -285 23 -42 56 -41 276 11 115 27 218 52 229 56 11 3 73 58 138 122 l119 116 -4 -205 c-4 -184 -7 -211 -27 -263 -32 -80 -95 -155 -160 -189 l-53 -28 -732 0 c-405 0 -764 -5 -806 -10 -112 -15 -198 -61 -292 -157 -42 -43 -203 -221 -358 -395 -155 -175 -288 -318 -296 -318 -26 0 -25 9 42 373 62 335 62 358 2 431 -58 71 -57 70 -408 76 -353 6 -344 4 -424 84 -51 50 -90 129 -105 210 -14 78 -15 1601 -1 1676 17 89 58 166 116 220 95 86 -55 79 1704 77 l1565 -2 40 -21z m1038 -292 l97 -97 -608 -608 -607 -607 -100 100 -100 100 605 605 c333 333 607 605 610 605 3 0 49 -44 103 -98z m-1301 -1383 c-7 -7 -93 -29 -112 -29 -10 0 -9 11 12 94 l10 39 49 -49 c27 -26 46 -51 41 -55z M665 3755 l-25 -24 0 -344 c0 -436 -21 -402 247 -395 138 3 163 7 199 26 142 74 178 261 71 374 -25 27 -25 28 -9 60 10 20 16 56 16 93 0 69 -23 122 -76 172 -57 55 -91 63 -253 63 -142 0 -147 -1 -170 -25z m309 -156 c34 -27 36 -79 4 -109 -18 -17 -35 -20 -100 -20 l-78 0 0 75 0 75 74 0 c59 0 78 -4 100 -21z m62 -322 c29 -34 30 -56 3 -91 -20 -25 -24 -26 -130 -26 l-109 0 0 76 0 76 106 -4 c102 -3 107 -4 130 -31z M1315 3755 l-25 -24 0 -345 0 -344 31 -26 c30 -26 32 -26 205 -26 215 0 244 10 244 85 0 70 -34 85 -195 85 l-125 0 0 285 0 286 -25 24 c-15 16 -36 25 -55 25 -19 0 -40 -9 -55 -25z M1952 3761 c-220 -81 -321 -333 -221 -546 71 -150 254 -246 411 -215 169 33 288 154 319 323 32 171 -59 344 -219 420 -87 41 -206 49 -290 18z m196 -155 c63 -23 100 -55 128 -113 36 -72 32 -170 -9 -232 -40 -60 -97 -94 -167 -99 -143 -10 -239 81 -240 228 0 54 5 74 30 116 54 95 158 135 258 100z M2803 3762 c-101 -36 -180 -109 -231 -212 -23 -49 -26 -67 -27 -160 0 -97 2 -110 31 -170 57 -119 162 -198 293 -221 208 -37 422 127 438 335 11 133 -7 146 -197 146 l-132 0 -29 -29 c-17 -18 -29 -40 -29 -56 0 -16 12 -38 29 -56 28 -27 34 -29 111 -29 l82 0 -25 -42 c-52 -89 -174 -131 -272 -94 -60 23 -120 92 -135 156 -52 217 185 372 359 235 54 -43 97 -46 131 -10 53 57 12 128 -109 188 -82 40 -205 48 -288 19z M700 2773 c-80 -29 -78 -138 2 -158 13 -3 515 -4 1116 -3 l1094 3 19 24 c19 23 25 65 13 96 -18 46 6 45 -1146 44 -596 0 -1090 -3 -1098 -6z M700 2333 c-48 -18 -72 -70 -54 -118 18 -46 -3 -45 1104 -45 l1042 0 29 29 c36 36 37 70 5 108 l-24 28 -1044 2 c-573 1 -1050 -1 -1058 -4z"/>
</svg>
