<svg xmlns="http://www.w3.org/2000/svg" viewBox="0 0 512.000000 512.000000">
  <path transform="translate(0.000000,512.000000) scale(0.100000,-0.100000)" d="M1304 4960 c-129 -19 -240 -78 -331 -174 -128 -135 -163 -239 -163 -483 l0 -153 -140 0 c-159 0 -199 -11 -224 -59 -27 -51 -21 -98 18 -137 l34 -34 156 0 156 0 0 -375 0 -375 -145 0 c-156 0 -188 -8 -219 -52 -9 -12 -16 -42 -16 -66 0 -37 6 -50 34 -78 l34 -34 156 0 156 0 0 -374 0 -375 -161 -3 -161 -3 -29 -33 c-34 -37 -40 -102 -13 -140 31 -44 63 -52 219 -52 l145 0 0 -375 0 -375 -156 0 -156 0 -34 -34 c-39 -39 -45 -86 -19 -136 27 -52 58 -60 220 -60 l145 0 0 -155 c0 -184 9 -234 61 -341 68 -139 191 -246 340 -295 l74 -24 1445 0 1445 0 70 22 c189 60 333 206 392 398 17 57 18 145 18 1980 0 1835 -1 1923 -18 1980 -58 189 -204 337 -397 401 -52 18 -126 19 -1470 20 -778 1 -1438 -2 -1466 -6z m2903 -251 c69 -27 145 -94 181 -164 l27 -50 0 -1930 0 -1930 -27 -50 c-32 -60 -97 -124 -158 -156 l-45 -24 -1450 0 -1450 0 -50 25 c-70 34 -139 108 -166 177 -19 49 -23 82 -27 216 l-4 157 146 0 c157 0 189 8 220 52 9 12 16 42 16 66 0 37 -6 50 -34 78 l-34 34 -156 0 -156 0 0 374 0 375 161 3 161 3 29 33 c23 26 29 42 29 78 0 39 -5 51 -34 80 l-34 34 -156 0 -156 0 0 375 0 375 156 0 156 0 34 34 c28 28 34 41 34 78 0 24 -7 54 -16 66 -31 44 -63 52 -219 52 l-145 0 0 375 0 375 156 0 156 0 34 34 c28 28 34 42 34 75 0 23 -8 53 -17 68 -29 43 -69 53 -223 53 l-140 0 0 133 c0 152 15 227 61 299 40 62 112 115 189 139 14 4 663 8 1442 8 l1417 1 58 -21z M2625 3699 c-27 -6 -88 -28 -135 -51 -192 -92 -310 -279 -310 -493 0 -251 163 -467 409 -539 70 -20 209 -21 286 -1 93 25 174 73 250 150 340 341 114 916 -370 940 -44 2 -102 0 -130 -6z m252 -259 c238 -117 236 -459 -5 -577 -49 -24 -69 -28 -142 -28 -73 0 -92 4 -136 27 -76 40 -107 70 -145 140 -31 58 -34 70 -34 148 0 98 20 152 80 219 100 110 245 137 382 71z M2640 2410 c-195 -23 -365 -105 -500 -240 -152 -152 -248 -374 -253 -584 -2 -92 13 -127 64 -153 18 -10 200 -13 782 -13 836 0 800 -3 833 62 14 26 16 51 11 128 -24 417 -346 756 -758 800 -52 5 -98 9 -104 9 -5 -1 -39 -5 -75 -9z m300 -263 c147 -52 264 -156 335 -297 27 -54 65 -167 65 -194 0 -3 -272 -6 -605 -6 -687 0 -619 -11 -589 91 60 205 227 367 434 424 88 24 266 15 360 -18z"/>
</svg>
