<svg xmlns="http://www.w3.org/2000/svg" viewBox="0 0 512.000000 512.000000">
  <path transform="translate(0.000000,512.000000) scale(0.100000,-0.100000)" d="M2380 4794 c-14 -2 -59 -9 -100 -15 -471 -66 -875 -338 -1063 -714 -91 -183 -128 -349 -128 -585 -1 -356 88 -627 311 -950 206 -299 260 -380 294 -442 80 -144 126 -322 126 -485 0 -94 12 -126 60 -167 l32 -26 264 0 264 0 0 603 0 603 -63 27 c-260 113 -350 447 -182 676 132 179 363 237 562 140 343 -166 335 -664 -14 -816 l-63 -27 0 -603 0 -603 265 0 264 0 35 30 c45 40 53 70 59 210 10 235 84 411 293 702 335 464 435 720 435 1118 1 361 -104 642 -328 880 -205 218 -484 360 -838 427 -76 14 -429 27 -485 17z M484 4561 c-44 -27 -64 -59 -64 -104 0 -69 19 -89 172 -178 125 -73 149 -84 191 -84 43 0 52 4 83 37 29 32 34 45 34 87 0 67 -23 89 -190 184 -146 83 -174 90 -226 58z M4405 4500 c-163 -93 -185 -115 -185 -183 0 -40 5 -53 34 -85 31 -33 40 -37 83 -37 42 0 66 11 191 84 153 89 172 109 172 179 0 64 -61 122 -127 122 -17 0 -84 -32 -168 -80z M189 3497 c-48 -32 -68 -91 -48 -143 8 -22 29 -48 48 -61 32 -22 44 -23 206 -23 162 0 174 1 206 23 19 13 40 39 48 61 20 52 0 111 -48 143 -32 22 -43 23 -206 23 -163 0 -174 -1 -206 -23z M4519 3497 c-48 -32 -68 -91 -48 -143 8 -22 29 -48 48 -61 32 -22 44 -23 206 -23 162 0 174 1 206 23 73 49 72 155 0 204 -32 22 -44 23 -206 23 -163 0 -174 -1 -206 -23z M2474 3241 c-86 -39 -137 -142 -114 -233 42 -164 251 -212 358 -83 109 133 14 335 -158 335 -25 0 -63 -9 -86 -19z M740 2593 c-8 -3 -77 -42 -153 -86 -148 -86 -167 -105 -167 -175 0 -69 70 -130 137 -119 43 7 279 142 316 180 63 68 16 193 -78 202 -22 3 -47 2 -55 -2z M4294 2591 c-70 -30 -98 -129 -54 -191 25 -35 297 -190 333 -190 66 0 127 58 127 122 0 70 -19 90 -171 178 -141 82 -192 99 -235 81z M1935 1191 c-11 -5 -31 -21 -45 -36 -20 -22 -25 -37 -25 -81 0 -47 4 -57 33 -86 l32 -33 630 0 630 0 32 33 c29 29 33 39 33 87 0 48 -4 58 -33 87 l-32 33 -618 2 c-339 1 -626 -2 -637 -6z M2174 707 c-64 -58 -55 -152 19 -197 26 -16 50 -20 135 -20 l102 0 0 -30 c0 -104 102 -171 190 -125 40 21 59 51 66 107 l7 48 101 0 c83 0 107 4 133 20 74 45 83 139 19 197 l-36 33 -350 0 -350 0 -36 -33z"/>
</svg>
