<svg xmlns="http://www.w3.org/2000/svg" viewBox="0 0 512.000000 512.000000">
  <path transform="translate(0.000000,512.000000) scale(0.100000,-0.100000)" d="M1425 4390 c-594 -202 -1087 -370 -1096 -374 -19 -8 -39 -48 -39 -76 0 -48 34 -64 453 -205 l407 -138 0 -271 0 -272 -87 -28 c-340 -111 -628 -353 -792 -665 -105 -202 -155 -406 -154 -636 1 -372 136 -699 398 -960 665 -666 1777 -478 2191 370 29 61 65 153 79 205 41 147 30 136 128 143 108 9 290 40 426 73 205 50 492 155 539 197 l22 20 0 913 0 912 338 112 c185 62 343 115 350 118 9 3 12 -169 12 -841 l0 -846 -115 -95 c-63 -53 -119 -105 -125 -115 -6 -13 -10 -190 -10 -509 0 -480 0 -490 21 -516 l20 -26 279 0 c153 0 286 3 295 6 43 17 45 38 45 538 0 261 -4 485 -9 498 -5 13 -61 67 -124 119 l-116 94 0 921 -1 922 -24 23 c-16 16 -340 130 -1111 391 -599 202 -1095 367 -1104 367 -9 -1 -502 -167 -1096 -369z m1921 -77 l821 -278 -838 -5 c-822 -5 -839 -5 -858 -25 -31 -32 -31 -85 -1 -115 20 -20 34 -20 863 -20 466 0 835 -4 827 -9 -22 -13 -1618 -551 -1633 -551 -7 0 -344 112 -748 248 -404 137 -825 279 -937 317 -111 37 -200 70 -197 74 5 4 1843 632 1875 640 3 1 374 -124 826 -276z m-1434 -973 c325 -110 601 -200 614 -200 12 0 289 90 615 200 326 110 594 200 596 200 2 0 3 -378 3 -839 l0 -840 -105 -40 c-202 -78 -430 -135 -661 -166 -60 -8 -115 -15 -121 -15 -10 0 -13 29 -13 113 0 572 -383 1093 -934 1272 -157 51 -222 60 -418 60 l-178 0 0 228 c0 125 3 227 6 227 3 0 271 -90 596 -200z m-367 -429 c86 -39 187 -185 250 -361 25 -72 85 -301 85 -327 0 -10 -83 -13 -401 -13 l-401 0 7 48 c32 214 145 488 244 590 76 78 141 97 216 63z m-449 -117 c-79 -142 -151 -349 -176 -506 l-13 -78 -263 0 -264 0 10 26 c6 14 26 54 46 88 124 211 315 387 528 486 79 37 168 71 174 66 1 -2 -17 -39 -42 -82z m835 45 c249 -95 472 -297 609 -551 l42 -78 -266 0 -265 0 -7 38 c-39 223 -119 449 -208 590 l-27 44 23 -7 c13 -4 57 -20 99 -36z m-1048 -826 c-10 -36 -10 -539 0 -575 l7 -28 -284 0 c-253 0 -285 2 -290 16 -4 9 -13 58 -21 108 -24 150 -18 341 16 469 l10 37 285 0 284 0 -7 -27z m1032 -100 c8 -130 0 -476 -10 -493 -4 -6 -171 -10 -429 -10 l-423 0 -7 61 c-8 79 -8 448 0 517 l7 52 427 0 428 0 7 -127z m733 85 c37 -148 40 -360 6 -510 l-17 -78 -285 0 -284 0 7 63 c10 80 10 446 0 515 l-7 52 285 0 285 0 10 -42z m2115 -74 l77 -65 0 -409 0 -410 -165 0 -165 0 0 408 0 407 83 67 c45 37 84 67 87 68 3 0 40 -30 83 -66z m-3836 -789 c31 -157 75 -287 149 -433 73 -144 77 -140 -83 -70 -197 86 -392 248 -506 419 -49 75 -107 180 -107 194 0 3 118 5 263 5 l262 0 22 -115z m953 103 c0 -7 -9 -53 -20 -103 -43 -195 -121 -385 -202 -493 -199 -267 -444 -41 -567 521 l-19 87 404 0 c317 0 404 -3 404 -12z m690 -14 c-16 -42 -85 -156 -135 -222 -69 -92 -222 -230 -325 -294 -85 -53 -274 -137 -284 -127 -3 3 20 53 50 112 84 164 140 335 169 520 l6 37 264 0 265 0 -10 -26z"/>
</svg>
