<svg xmlns="http://www.w3.org/2000/svg" viewBox="0 0 512.000000 512.000000">
  <path transform="translate(0.000000,512.000000) scale(0.100000,-0.100000)" d="M2463 5111 c-154 -40 -281 -183 -303 -342 -8 -54 0 -155 14 -177 3 -6 -1078 -639 -1155 -676 -14 -6 -28 0 -61 28 -23 20 -67 49 -98 64 -50 24 -66 27 -165 27 -99 0 -116 -3 -168 -27 -80 -38 -160 -117 -200 -197 -30 -61 -32 -72 -32 -171 0 -93 3 -112 27 -162 52 -111 138 -189 245 -224 l53 -16 0 -678 0 -677 -46 -13 c-60 -17 -155 -80 -194 -130 -17 -21 -43 -65 -58 -97 -24 -52 -27 -69 -27 -163 0 -99 2 -110 32 -171 40 -81 121 -160 200 -197 77 -35 206 -43 284 -17 61 20 86 34 147 83 33 26 48 32 62 26 77 -37 1157 -670 1154 -676 -14 -22 -22 -123 -14 -177 19 -133 108 -254 229 -314 62 -30 73 -32 171 -32 99 0 110 2 171 32 121 60 211 182 229 311 7 52 -1 159 -13 179 -4 7 1070 636 1154 677 13 6 28 0 61 -26 61 -49 86 -63 147 -83 78 -26 207 -18 284 17 79 37 160 116 200 197 30 61 32 72 32 171 0 94 -3 111 -27 163 -15 32 -41 76 -58 97 -39 50 -134 113 -194 130 l-46 13 0 677 0 678 53 17 c118 37 227 150 263 272 26 88 16 204 -24 285 -39 79 -120 159 -199 196 -52 24 -69 27 -168 27 -99 0 -115 -3 -165 -27 -31 -15 -75 -44 -98 -64 -33 -28 -47 -34 -61 -28 -82 39 -1158 670 -1154 677 12 20 20 127 13 179 -18 128 -109 251 -226 309 -53 27 -77 32 -151 35 -49 2 -102 -1 -120 -5z m219 -178 c224 -122 134 -465 -122 -465 -69 0 -132 26 -177 72 -52 53 -68 96 -68 180 0 64 4 82 28 122 69 119 216 158 339 91z m-390 -519 c38 -34 149 -94 176 -94 9 0 12 -38 12 -154 0 -148 1 -156 23 -182 17 -20 33 -27 57 -27 24 0 40 7 57 27 22 26 23 34 23 182 0 116 3 154 13 154 26 0 137 60 175 94 l40 36 586 -337 586 -338 -7 -40 c-10 -51 -10 -138 -1 -191 l8 -41 -121 -69 c-66 -38 -129 -77 -140 -87 -42 -39 -7 -127 50 -127 14 0 85 34 158 76 l133 76 40 -35 c42 -39 92 -67 153 -86 l37 -13 0 -679 0 -679 -27 -6 c-47 -11 -122 -53 -163 -90 l-39 -36 -134 76 c-73 42 -144 76 -157 76 -35 0 -70 -37 -70 -75 0 -41 20 -58 162 -140 l118 -68 -8 -41 c-9 -53 -9 -140 1 -191 l7 -40 -586 -338 -586 -337 -40 36 c-38 34 -149 94 -175 94 -10 0 -13 38 -13 154 0 148 -1 156 -23 182 -33 37 -81 37 -114 0 -22 -26 -23 -34 -23 -182 0 -116 -3 -154 -12 -154 -27 0 -138 -60 -176 -94 l-39 -36 -587 337 -586 338 7 40 c10 51 10 138 1 191 l-8 41 118 68 c141 81 162 99 162 139 0 37 -35 76 -69 76 -14 0 -85 -34 -158 -76 l-134 -76 -39 36 c-41 37 -116 79 -162 90 l-28 6 0 679 0 679 37 13 c61 19 111 47 153 86 l40 35 133 -76 c73 -42 143 -76 157 -76 59 0 94 87 50 128 -10 10 -74 49 -140 86 l-121 69 8 41 c10 51 10 139 0 191 l-7 40 582 337 c321 185 585 337 587 337 2 1 21 -15 43 -35z m-1486 -552 c47 -24 100 -81 120 -128 20 -48 17 -151 -5 -199 -57 -126 -209 -181 -337 -121 -82 38 -144 134 -144 221 0 99 72 206 161 238 58 22 151 16 205 -11z m3709 11 c92 -31 165 -136 165 -238 0 -133 -117 -245 -255 -245 -142 1 -244 104 -245 248 0 73 15 114 61 167 68 77 173 103 274 68z m-3720 -2162 c91 -41 144 -126 145 -229 0 -73 -15 -114 -60 -166 -93 -105 -259 -113 -357 -17 -166 161 -58 431 172 431 37 0 76 -8 100 -19z m3741 -5 c159 -74 190 -282 61 -407 -121 -119 -337 -72 -403 87 -20 48 -17 151 5 199 57 127 208 181 337 121z m-1871 -1076 c91 -39 140 -119 140 -231 0 -67 -4 -81 -30 -125 -35 -56 -113 -108 -176 -119 -137 -23 -273 83 -286 223 -18 197 169 331 352 252z M1923 3765 c-124 -34 -244 -128 -297 -233 -89 -175 -67 -385 53 -515 l26 -29 -35 -26 c-71 -53 -177 -169 -212 -232 -46 -82 -75 -179 -84 -274 -6 -71 -5 -75 19 -100 27 -27 65 -33 97 -16 22 12 40 60 40 109 1 144 124 334 262 404 56 28 56 28 109 13 29 -9 89 -16 136 -16 l83 0 25 -50 c14 -27 38 -64 54 -83 l30 -33 -64 -47 c-147 -109 -241 -271 -264 -454 -14 -113 7 -153 78 -153 42 0 71 40 71 99 0 59 21 138 56 210 35 70 142 179 212 215 l52 26 58 -16 c73 -22 191 -22 265 0 l58 17 52 -28 c70 -37 176 -145 209 -213 33 -67 58 -160 58 -216 0 -54 30 -94 71 -94 70 0 90 38 78 148 -20 182 -119 354 -267 462 l-61 44 30 33 c16 19 40 56 54 83 l25 50 83 0 c46 0 106 7 134 15 61 18 79 13 164 -47 116 -81 208 -244 209 -369 0 -49 18 -97 40 -109 32 -17 70 -11 97 16 24 25 25 29 19 100 -9 95 -38 192 -84 274 -35 63 -141 179 -212 232 l-35 26 26 29 c155 168 141 452 -30 624 -145 144 -351 178 -537 88 -66 -32 -166 -128 -202 -196 l-30 -58 -82 1 -82 1 -31 57 c-36 67 -135 164 -201 195 -104 51 -220 63 -323 36z m236 -166 c63 -28 104 -61 140 -115 36 -55 38 -70 12 -79 -27 -8 -114 -95 -146 -145 -35 -55 -61 -133 -70 -205 l-8 -58 -68 5 c-171 13 -293 143 -293 313 0 224 228 373 433 284z m983 20 c242 -50 333 -334 169 -522 -46 -52 -127 -89 -210 -95 l-68 -5 -8 58 c-9 72 -35 150 -70 205 -32 50 -119 137 -146 145 -26 9 -24 24 12 79 47 70 120 119 202 136 59 11 60 11 119 -1z m-444 -329 c107 -54 163 -139 170 -260 5 -100 -21 -172 -88 -240 -122 -121 -318 -121 -440 0 -67 68 -93 140 -88 240 7 121 63 206 170 260 52 26 72 30 138 30 66 0 86 -4 138 -30z M1886 1769 c-67 -53 1 -168 76 -128 64 34 64 104 1 137 -31 17 -47 15 -77 -9z M2146 1769 c-20 -16 -26 -29 -26 -58 0 -81 106 -107 139 -34 20 45 9 77 -36 101 -31 17 -47 15 -77 -9z M2404 1767 c-65 -57 -2 -159 77 -127 58 24 60 113 3 139 -36 16 -50 14 -80 -12z M2930 1777 c-32 -16 -47 -58 -34 -94 16 -46 45 -54 190 -51 113 3 135 6 153 22 32 29 29 88 -5 115 -24 19 -40 21 -153 21 -81 0 -135 -5 -151 -13z M1880 1470 c-28 -28 -26 -81 3 -108 l23 -22 655 0 656 0 21 23 c28 30 29 80 2 107 -20 20 -33 20 -680 20 -647 0 -660 0 -680 -20z"/>
</svg>
