<svg xmlns="http://www.w3.org/2000/svg" viewBox="0 0 512.000000 512.000000">
  <path transform="translate(0.000000,512.000000) scale(0.100000,-0.100000)" d="M1301 4390 c-868 -290 -1231 -416 -1248 -432 -71 -66 -71 -160 0 -226 17 -16 381 -142 1253 -432 676 -226 1240 -410 1254 -410 14 0 578 184 1254 410 872 290 1236 416 1253 432 71 66 71 160 0 226 -29 27 -2464 842 -2512 841 -16 0 -581 -185 -1254 -409z M4638 3262 l-138 -46 0 -746 0 -745 -60 -28 c-88 -41 -171 -126 -217 -223 l-38 -79 -3 -485 -3 -486 23 -34 c47 -70 50 -71 458 -68 359 3 365 3 396 25 64 46 64 43 64 546 0 424 -1 459 -20 518 -37 123 -131 233 -240 285 l-60 28 0 793 c0 628 -3 793 -12 792 -7 0 -75 -22 -150 -47z M960 2578 c0 -616 -11 -560 133 -687 330 -291 696 -466 1126 -538 150 -25 532 -25 682 0 442 74 799 248 1146 556 121 107 113 62 113 670 0 414 -3 522 -12 518 -7 -2 -348 -116 -757 -252 -724 -241 -746 -247 -825 -247 -81 -1 -94 3 -837 251 -415 138 -758 251 -762 251 -4 0 -7 -235 -7 -522z"/>
</svg>
