<svg xmlns="http://www.w3.org/2000/svg" viewBox="0 0 512.000000 512.000000">
  <path transform="translate(0.000000,512.000000) scale(0.100000,-0.100000)" d="M213 3990 c-46 -19 -58 -92 -20 -127 12 -12 192 -92 400 -180 295 -124 376 -161 371 -173 -3 -8 -107 -305 -231 -660 -124 -355 -227 -646 -228 -648 -1 -1 -55 15 -120 38 -65 22 -132 40 -150 40 -61 0 -97 -75 -60 -127 22 -31 372 -147 406 -134 37 13 44 25 88 154 22 65 43 123 46 128 6 8 63 -16 112 -48 l22 -15 -34 -46 c-56 -79 -68 -159 -39 -246 31 -91 183 -226 255 -226 18 0 20 -4 14 -31 -11 -51 -7 -135 10 -174 22 -54 86 -127 151 -171 56 -38 58 -39 152 -40 l95 -1 14 -46 c18 -63 115 -167 189 -203 49 -24 63 -26 133 -22 l79 5 13 -44 c14 -52 93 -145 163 -194 47 -33 52 -34 142 -34 88 0 94 1 139 33 l46 32 82 -40 c76 -38 89 -41 161 -41 69 0 88 4 143 31 88 44 133 105 157 212 l6 27 75 -36 c61 -28 88 -36 138 -36 160 -1 289 105 304 248 5 46 9 55 22 49 69 -29 101 -36 162 -31 150 10 274 136 281 285 2 29 6 52 9 52 4 0 33 -12 65 -27 114 -52 239 -29 330 62 63 63 88 122 88 210 1 84 -14 131 -61 191 l-34 46 15 61 c8 34 18 79 22 100 3 22 14 42 25 48 21 11 22 10 65 -115 28 -80 57 -116 93 -116 37 0 402 139 429 163 45 42 11 137 -50 137 -12 0 -89 -25 -171 -56 -81 -31 -150 -54 -152 -52 -3 3 -341 963 -440 1250 l-23 67 404 161 c419 168 444 181 444 236 0 35 -40 75 -75 76 -38 1 -911 -348 -938 -375 -16 -16 -18 -28 -13 -71 l6 -52 -113 -30 -112 -31 -40 28 c-43 29 -115 47 -460 113 -286 55 -465 78 -568 74 -90 -3 -94 -4 -192 -58 -114 -63 -621 -397 -648 -427 -10 -12 -26 -56 -37 -99 -10 -44 -53 -177 -94 -297 -52 -148 -74 -226 -70 -243 3 -13 27 -43 54 -67 190 -171 473 -138 607 70 19 29 49 93 67 140 l34 87 68 13 c189 38 284 65 299 86 35 51 0 127 -58 127 -42 0 -375 -68 -407 -84 -30 -14 -41 -35 -81 -149 -17 -49 -45 -109 -63 -135 -60 -90 -187 -127 -281 -82 -73 34 -73 18 3 236 38 109 75 222 81 249 l12 50 197 132 c236 157 336 220 422 263 62 31 68 32 150 26 102 -7 357 -50 652 -109 210 -43 219 -45 258 -81 22 -20 50 -36 63 -36 12 0 87 18 166 40 80 22 147 37 150 34 3 -3 78 -213 167 -466 l161 -461 -68 -33 c-75 -36 -71 -29 -89 -159 -6 -44 -14 -83 -18 -87 -13 -12 -430 225 -803 456 -233 145 -373 226 -390 226 -35 0 -79 -45 -79 -81 0 -15 10 -39 22 -52 39 -41 697 -442 998 -607 315 -174 330 -186 330 -269 0 -80 -60 -141 -138 -141 -20 0 -139 54 -322 145 -165 82 -303 145 -318 145 -58 0 -98 -69 -67 -116 9 -14 87 -72 174 -128 172 -112 188 -132 178 -206 -10 -76 -83 -138 -151 -127 -17 3 -130 59 -251 126 -153 84 -230 121 -252 121 -60 0 -100 -67 -69 -115 9 -13 65 -58 125 -100 59 -41 114 -81 121 -90 7 -8 15 -35 17 -58 10 -82 -50 -147 -133 -147 -32 0 -75 17 -187 75 -80 41 -155 75 -167 75 -28 0 -80 -52 -80 -80 0 -11 9 -38 20 -60 24 -46 26 -110 5 -149 -30 -59 -125 -78 -200 -40 l-43 21 24 35 c33 49 47 128 34 187 -14 64 -30 93 -83 152 -61 68 -132 105 -213 112 -64 5 -64 5 -64 36 0 49 -42 126 -102 187 -67 68 -115 92 -195 97 -51 4 -63 8 -63 21 0 10 -7 42 -16 71 -13 43 -31 69 -86 127 -81 82 -132 108 -219 108 l-56 0 -11 52 c-21 101 -131 221 -230 249 -65 19 -143 14 -193 -11 l-33 -17 -108 53 c-82 40 -107 57 -102 69 3 8 71 202 151 430 79 228 148 418 151 421 4 4 125 -16 270 -44 244 -48 265 -50 290 -36 50 28 55 103 9 133 -12 8 -131 36 -264 62 l-241 48 1 59 c2 53 -1 61 -23 78 -29 22 -823 358 -860 364 -14 3 -35 0 -47 -5z m965 -1764 c40 -21 91 -78 101 -112 13 -46 -4 -83 -66 -147 -102 -103 -146 -112 -220 -44 -90 83 -89 137 4 229 87 85 127 102 181 74z m429 -359 c48 -49 53 -58 53 -97 0 -42 -4 -47 -130 -174 -128 -130 -130 -131 -175 -131 -43 0 -50 4 -101 57 -46 48 -54 62 -54 94 0 36 9 47 133 171 130 130 134 133 176 133 40 0 49 -5 98 -53z m358 -318 c62 -58 76 -99 52 -145 -23 -43 -189 -202 -220 -209 -41 -11 -74 2 -123 47 -48 45 -65 87 -52 133 8 31 142 174 193 206 53 33 89 25 150 -32z m332 -290 c46 -29 93 -95 93 -131 0 -40 -22 -72 -98 -143 -58 -55 -68 -60 -108 -60 -40 0 -49 5 -96 53 -48 47 -53 56 -53 97 0 41 5 49 60 106 101 103 138 117 202 78z"/>
</svg>
