<svg xmlns="http://www.w3.org/2000/svg" viewBox="0 0 512.000000 512.000000">
  <path transform="translate(0.000000,512.000000) scale(0.100000,-0.100000)" d="M2644 5005 l-25 -25 3 -341 3 -341 24 -19 c30 -24 62 -24 92 0 l24 19 3 339 c3 332 2 340 -18 366 -28 35 -72 36 -106 2z M3797 4905 c-33 -33 -337 -573 -337 -598 0 -51 65 -85 109 -58 7 5 87 136 177 292 170 295 184 328 146 362 -23 21 -76 22 -95 2z M1513 4849 c-30 -11 -56 -53 -48 -79 11 -35 325 -574 343 -587 40 -32 112 4 112 55 0 23 -298 549 -332 589 -24 26 -47 33 -75 22z M1032 4149 c-29 -15 -55 -40 -81 -78 -52 -77 -779 -1216 -808 -1266 -27 -47 -31 -127 -9 -178 21 -49 64 -83 291 -228 l210 -134 75 0 c62 0 80 4 107 23 l32 23 -26 -57 c-35 -77 -41 -165 -18 -252 16 -56 27 -75 69 -117 57 -57 103 -75 189 -75 l56 0 15 -53 c37 -127 165 -227 291 -227 29 0 34 -5 49 -44 22 -57 85 -122 144 -149 36 -16 69 -22 141 -23 l94 -1 18 -35 c45 -87 156 -148 269 -148 69 0 118 19 187 72 l52 40 59 -36 c145 -88 256 -126 368 -126 119 0 221 65 278 178 17 32 18 33 64 25 67 -11 154 -7 196 11 53 22 129 98 159 160 15 30 27 59 27 64 0 5 34 12 75 15 47 3 93 14 120 27 60 29 121 100 141 165 l17 52 81 6 c155 10 259 73 311 188 35 80 44 177 22 243 -9 25 -15 46 -13 46 2 0 18 -7 36 -16 52 -27 111 -29 161 -7 45 20 429 262 463 292 38 34 58 91 54 156 l-4 61 -413 650 c-228 357 -426 662 -440 677 -51 56 -125 77 -194 57 -23 -7 -141 -76 -262 -154 -257 -165 -279 -188 -280 -288 l0 -60 -65 4 c-48 4 -92 17 -170 51 -58 25 -128 51 -155 57 -91 21 -206 -3 -364 -76 l-75 -34 -25 24 c-91 85 -210 93 -461 31 -150 -36 -302 -54 -352 -42 -23 6 -24 11 -24 69 0 69 -16 109 -61 151 -30 28 -382 256 -444 288 -51 25 -123 25 -177 -2z m304 -245 c231 -147 234 -149 234 -181 0 -25 -797 -1287 -828 -1310 -9 -7 -23 -13 -32 -13 -16 0 -395 235 -433 269 -12 10 -17 25 -15 41 4 24 781 1253 821 1298 11 12 28 22 37 22 10 0 107 -57 216 -126z m3111 -567 c227 -356 413 -655 413 -665 0 -9 -4 -22 -8 -28 -9 -15 -396 -262 -428 -274 -18 -7 -29 -5 -48 13 -13 12 -204 303 -423 647 -321 505 -398 631 -398 659 0 33 4 36 210 167 165 106 216 134 239 132 27 -3 61 -51 443 -651z m-1344 219 c137 -60 175 -69 292 -71 l100 -2 313 -489 c172 -269 317 -497 322 -506 8 -13 6 -20 -10 -28 -24 -13 -29 -10 -305 185 -516 365 -735 485 -890 485 -70 0 -73 -2 -268 -150 -204 -155 -370 -243 -486 -257 -83 -10 -107 21 -90 115 29 153 207 389 429 568 141 114 315 193 428 194 53 0 79 -7 165 -44z m-670 9 c9 -4 17 -10 17 -15 0 -4 -36 -37 -80 -74 -209 -177 -380 -412 -425 -586 -59 -227 82 -356 320 -295 131 34 350 163 545 320 93 75 96 76 140 71 111 -15 399 -186 890 -531 305 -214 325 -235 325 -333 -1 -109 -68 -181 -185 -196 -98 -13 -110 -7 -523 272 -230 157 -395 262 -409 262 -42 0 -68 -27 -68 -71 0 -46 -42 -14 418 -324 372 -250 360 -239 325 -312 -24 -52 -65 -73 -142 -73 l-64 0 -292 190 c-160 105 -295 190 -298 190 -14 0 -80 -111 -71 -119 5 -5 128 -86 274 -181 146 -95 267 -174 268 -175 10 -9 -27 -83 -58 -118 -32 -36 -42 -40 -92 -45 -37 -3 -73 1 -103 11 -25 9 -129 75 -230 147 -110 78 -193 130 -207 130 -13 0 -34 -7 -46 -16 -19 -13 -22 -24 -20 -57 3 -42 4 -42 163 -155 88 -62 161 -119 163 -125 1 -7 -10 -31 -25 -55 -32 -48 -91 -82 -144 -82 -67 0 -182 43 -286 108 l-41 26 19 27 c11 15 36 63 56 106 47 97 57 196 27 259 -25 53 -80 105 -145 137 l-54 28 3 87 c2 60 -1 100 -12 130 -39 107 -132 172 -260 180 l-72 4 -12 43 c-15 56 -67 123 -122 157 -92 57 -229 58 -347 2 l-53 -25 -30 35 c-17 19 -59 49 -92 66 -50 24 -74 30 -127 30 -72 0 -150 -29 -185 -69 -21 -23 -41 -27 -51 -11 -4 6 132 229 302 496 292 459 309 484 333 478 119 -30 244 -22 448 26 203 47 270 52 335 25z m-1114 -1108 c25 -12 52 -38 64 -59 l21 -36 -46 -94 c-45 -91 -132 -222 -191 -287 -24 -28 -33 -31 -83 -31 -94 0 -135 35 -149 130 -11 81 22 146 146 283 112 122 154 139 238 94z m-403 -65 c-18 -16 -18 -16 -6 6 6 13 14 21 18 18 3 -4 -2 -14 -12 -24z m899 4 c47 -20 77 -70 73 -121 -3 -34 -35 -84 -203 -322 -185 -261 -202 -282 -230 -283 -89 -1 -157 45 -180 123 -8 28 -15 56 -15 63 0 7 19 36 43 66 92 113 182 264 227 378 17 42 30 54 95 85 58 29 137 33 190 11z m366 -253 c30 -18 59 -76 59 -118 0 -13 -5 -46 -10 -73 -9 -41 -34 -76 -167 -238 -85 -104 -169 -204 -185 -222 l-30 -34 -89 4 c-84 3 -90 5 -121 35 -59 59 -57 65 167 380 110 155 207 284 215 287 29 9 132 -4 161 -21z m190 -389 c15 -7 39 -28 54 -46 23 -28 26 -38 21 -76 -14 -101 -161 -304 -252 -347 -66 -31 -166 2 -199 65 -9 17 -13 36 -9 43 4 7 77 96 162 200 166 201 157 195 223 161z M3480 930 c-11 -11 -20 -32 -20 -47 0 -16 65 -139 165 -313 138 -241 171 -290 196 -300 27 -11 34 -10 57 7 54 40 48 59 -123 356 -87 150 -166 282 -178 295 -26 28 -70 29 -97 2z M1807 868 c-19 -15 -334 -559 -343 -592 -8 -35 30 -76 71 -76 27 0 39 7 58 33 51 68 327 559 327 580 0 50 -73 85 -113 55z M2635 835 l-25 -24 0 -334 c0 -323 1 -335 21 -361 25 -32 70 -35 99 -6 19 19 20 33 20 365 0 332 -1 346 -20 365 -27 27 -66 25 -95 -5z"/>
</svg>
